<svg width="28" height="20" viewBox="0 0 28 20" fill="none" xmlns="http://www.w3.org/2000/svg">
<path d="M27.4044 9.58646C27.4044 4.67266 21.299 0.666672 13.7674 0.666672C6.23584 0.666672 0.130551 4.67245 0.130551 9.58646C0.130551 9.71309 0.128906 10.0636 0.128906 10.1086C0.128906 15.3219 5.46536 19.5436 13.7658 19.5436C22.1167 19.5436 27.4047 15.3225 27.4047 10.1092C27.4044 9.92729 27.4044 9.82245 27.4044 9.58646Z" fill="#2B3375"/>
<path d="M13.7697 17.9703C21.0114 17.9703 26.8821 14.2147 26.8821 9.58195C26.8821 4.94918 21.0114 1.19357 13.7697 1.19357C6.52786 1.19357 0.657227 4.94918 0.657227 9.58195C0.657227 14.2147 6.52786 17.9703 13.7697 17.9703Z" fill="#1F9CD8"/>
<path d="M9.41627 6.93474C9.40928 6.94789 9.27874 7.08337 9.36344 7.19211C9.57045 7.45627 10.2094 7.60778 10.8559 7.46306C11.2407 7.37651 11.7339 6.98408 12.2118 6.605C12.7299 6.19365 13.2434 5.78168 13.7598 5.61784C14.3066 5.44372 14.6569 5.51855 14.8884 5.58824C15.1425 5.6641 15.441 5.83123 15.9173 6.18872C16.8146 6.8632 20.4222 10.0122 21.0455 10.5565C21.5473 10.3298 23.7786 9.36933 26.8106 8.70122C26.5472 7.08481 25.5642 5.60571 24.0728 4.3951C21.9942 5.26796 19.4548 5.7233 16.9711 4.51042C16.9581 4.50528 15.6141 3.86904 14.2881 3.90028C12.3175 3.94613 11.4638 4.79884 10.5603 5.70171L9.41627 6.93474Z" fill="white"/>
<path d="M20.8987 10.8997C20.8563 10.8618 16.6567 7.18724 15.7051 6.47226C15.1543 6.05926 14.8485 5.95401 14.5269 5.91289C14.3596 5.89131 14.1283 5.92215 13.9663 5.96655C13.524 6.08701 12.9451 6.4739 12.4311 6.88135C11.8993 7.30503 11.3975 7.70405 10.9323 7.80827C10.3374 7.94169 9.6113 7.78422 9.27991 7.56015C9.14588 7.4701 9.05132 7.36567 9.00589 7.2596C8.88357 6.97591 9.10929 6.74896 9.14629 6.71093L10.3053 5.45714C10.44 5.32311 10.5758 5.18825 10.7146 5.05586C10.3409 5.10458 9.9951 5.20018 9.65837 5.29371C9.23859 5.41171 8.83444 5.52416 8.42597 5.52375C8.25555 5.52375 7.34157 5.37388 7.16807 5.32701C6.11903 5.04003 5.19869 4.76046 3.82362 4.11845C2.17595 5.3449 1.07429 6.87847 0.755859 8.56766C0.992473 8.63035 1.37402 8.74383 1.53436 8.77919C5.26283 9.60826 6.4239 10.4624 6.63482 10.6406C6.86279 10.387 7.19192 10.2262 7.55907 10.2262C7.97186 10.2268 8.34333 10.434 8.56946 10.7543C8.78305 10.5858 9.07743 10.4414 9.45815 10.4417C9.63103 10.4417 9.81029 10.4735 9.9914 10.5352C10.4122 10.6795 10.6293 10.9595 10.7417 11.2132C10.883 11.1492 11.0563 11.1024 11.2606 11.103C11.4612 11.103 11.6701 11.1488 11.8806 11.2397C12.5682 11.5349 12.6751 12.21 12.6129 12.719C12.6618 12.7134 12.7113 12.711 12.7613 12.711C13.5762 12.7116 14.2391 13.3741 14.2389 14.1894C14.2389 14.4419 14.1746 14.6791 14.0621 14.8876C14.284 15.0119 14.8493 15.2944 15.3457 15.2313C15.7423 15.1813 15.8928 15.0459 15.9466 14.9698C15.9836 14.9172 16.0225 14.8559 15.9863 14.8121L14.9344 13.6432C14.9344 13.6432 14.7611 13.4794 14.8184 13.4163C14.8776 13.3515 14.9848 13.4447 15.0606 13.5078C15.5959 13.9549 16.2494 14.6298 16.2494 14.6298C16.2607 14.637 16.3039 14.7225 16.5457 14.7659C16.7537 14.8033 17.1221 14.7815 17.377 14.572C17.4413 14.519 17.5057 14.4532 17.5598 14.3849C17.5554 14.3884 17.5519 14.393 17.5478 14.3944C17.8169 14.0501 17.5178 13.7018 17.5178 13.7018L16.2897 12.3226C16.2897 12.3226 16.114 12.1602 16.1738 12.0951C16.2272 12.0385 16.3403 12.1241 16.4174 12.1878C16.8061 12.513 17.3556 13.0645 17.8821 13.5801C17.9851 13.6554 18.4476 13.9417 19.0606 13.5392C19.4327 13.2952 19.5071 12.9957 19.4967 12.7696C19.4708 12.4702 19.2372 12.2571 19.2372 12.2571L17.5595 10.5703C17.5595 10.5703 17.3823 10.419 17.4448 10.3426C17.4962 10.2782 17.6111 10.3709 17.6866 10.434C18.2211 10.8812 19.6677 12.2077 19.6677 12.2077C19.6887 12.2221 20.1882 12.5782 20.8061 12.1849C21.0269 12.0435 21.1682 11.8307 21.1801 11.5834C21.2013 11.1546 20.8987 10.8997 20.8987 10.8997Z" fill="white"/>
<path d="M12.7618 13.0381C12.5015 13.0348 12.2172 13.1894 12.18 13.167C12.1593 13.1534 12.1959 13.049 12.2201 12.9887C12.245 12.9287 12.5879 11.8978 11.7526 11.5398C11.1137 11.2652 10.7229 11.5742 10.5887 11.7136C10.5535 11.7501 10.5377 11.7473 10.5336 11.7006C10.5206 11.5152 10.4378 11.0128 9.88625 10.8446C9.09788 10.6033 8.59094 11.1534 8.46246 11.352C8.4049 10.9026 8.025 10.5539 7.55959 10.5535C7.05429 10.5531 6.64417 10.9626 6.64355 11.4677C6.64355 11.9732 7.05306 12.3829 7.55856 12.3829C7.80422 12.3835 8.02685 12.2853 8.19131 12.1276C8.19645 12.1323 8.1985 12.1409 8.19583 12.1586C8.15739 12.3848 8.08647 13.207 8.94761 13.5419C9.29297 13.676 9.58653 13.5765 9.83013 13.4056C9.9027 13.3544 9.91442 13.376 9.90393 13.4443C9.8731 13.6556 9.91236 14.1085 10.5472 14.3659C11.0303 14.5622 11.316 14.3615 11.5033 14.1884C11.5847 14.114 11.6071 14.1259 11.611 14.2411C11.634 14.8531 12.1426 15.3388 12.7599 15.3394C13.3962 15.3401 13.9118 14.8259 13.912 14.1899C13.913 13.5536 13.3978 13.0448 12.7618 13.0381Z" fill="white"/>
<path d="M21.0614 10.4602C19.7677 9.33136 16.7779 6.7319 15.9684 6.12422C15.5056 5.77619 15.1901 5.59241 14.9132 5.50997C14.7888 5.47215 14.6165 5.4296 14.3949 5.42918C14.1889 5.42918 13.9677 5.4666 13.7369 5.53999C13.2133 5.70568 12.6922 6.11991 12.1879 6.52077L12.1618 6.54133C11.692 6.91465 11.2067 7.30092 10.8391 7.38294C10.6788 7.41912 10.5139 7.43783 10.3494 7.43783C9.93789 7.43721 9.56807 7.3186 9.42951 7.14181C9.40669 7.11262 9.42129 7.06554 9.47495 6.99729L9.48193 6.98845L10.62 5.7618C11.5111 4.87044 12.3534 4.02883 14.2913 3.98442C14.3232 3.9834 14.3561 3.98278 14.3881 3.98278C15.5944 3.9836 16.8001 4.52364 16.9358 4.58634C18.0668 5.13809 19.2345 5.41829 20.4079 5.41932C21.6311 5.41952 22.8931 5.11692 24.2198 4.50617C24.0716 4.38138 23.9174 4.2601 23.7589 4.14127C22.5931 4.64637 21.4828 4.90169 20.4112 4.90148C19.3167 4.90045 18.2235 4.63773 17.1619 4.11969C17.106 4.09296 15.7745 3.46494 14.3889 3.46432C14.3526 3.46432 14.316 3.46494 14.2796 3.46556C12.6517 3.504 11.7348 4.08166 11.1181 4.58819C10.5184 4.60278 10.0008 4.7473 9.54032 4.87599C9.12958 4.99029 8.77497 5.08917 8.42899 5.08896C8.28653 5.08896 8.02998 5.07601 8.00695 5.07498C7.60876 5.06286 5.60422 4.57133 4.0096 3.96757C3.84679 4.08289 3.69014 4.20171 3.53761 4.323C5.20356 5.00591 7.23071 5.53423 7.87066 5.57555C8.04848 5.58727 8.23822 5.60721 8.42796 5.60762C8.85144 5.60762 9.27369 5.48901 9.68257 5.3745C9.92412 5.30687 10.1907 5.23307 10.4707 5.17941C10.3961 5.2528 10.3213 5.32743 10.2465 5.40225L9.09011 6.65316C8.99925 6.74505 8.80149 6.9901 8.93182 7.29208C8.98342 7.41378 9.08867 7.53034 9.23586 7.62942C9.51154 7.81485 10.0047 7.94046 10.4631 7.94087C10.6368 7.94128 10.8015 7.9236 10.9528 7.88968C11.4375 7.78114 11.9459 7.37595 12.4845 6.94775C12.9136 6.60691 13.5235 6.17377 13.9901 6.04672C14.1205 6.01116 14.2808 5.98916 14.4095 5.98916C14.4481 5.98957 14.4841 5.99081 14.518 5.99554C14.8264 6.0346 15.1247 6.13944 15.6569 6.53928C16.606 7.25241 20.8063 10.9266 20.8472 10.9628C20.8501 10.9652 21.1179 11.1963 21.0994 11.5803C21.0894 11.7943 20.9705 11.9847 20.7639 12.1165C20.5847 12.2303 20.3997 12.2881 20.2126 12.2881C19.9318 12.2875 19.7386 12.1561 19.7258 12.1471C19.7106 12.1343 18.2714 10.815 17.742 10.3716C17.6577 10.3017 17.5757 10.2388 17.4931 10.2388C17.4487 10.2385 17.4096 10.2577 17.3831 10.2906C17.2998 10.3933 17.3932 10.5354 17.503 10.6289L19.1839 12.3187C19.1864 12.3206 19.3936 12.5149 19.4162 12.7741C19.4294 13.0541 19.2955 13.2884 19.0172 13.471C18.8188 13.6017 18.6182 13.6679 18.4215 13.6679C18.163 13.6679 17.9821 13.5505 17.9421 13.5224L17.7007 13.2849C17.2602 12.8514 16.8052 12.403 16.4718 12.1249C16.3906 12.0575 16.3043 11.995 16.2212 11.995C16.1803 11.995 16.1437 12.0102 16.1153 12.04C16.0773 12.0821 16.051 12.158 16.1456 12.284C16.1844 12.3358 16.2305 12.3786 16.2305 12.3786L17.4571 13.7565C17.4674 13.769 17.7098 14.0571 17.4849 14.3442L17.4417 14.3993C17.4047 14.4398 17.3652 14.4772 17.3274 14.5093C17.1181 14.681 16.8387 14.6993 16.7279 14.6993C16.6687 14.6993 16.6118 14.6943 16.562 14.6853C16.4412 14.6637 16.3596 14.6298 16.3203 14.5835L16.3053 14.5679C16.2385 14.4986 15.6201 13.8675 15.1087 13.4405C15.0412 13.384 14.9571 13.3129 14.8702 13.3129C14.827 13.3129 14.7888 13.3297 14.7594 13.3622C14.6582 13.473 14.8102 13.6391 14.8745 13.6998L15.9209 14.8534C15.9196 14.8637 15.9067 14.8874 15.8812 14.924C15.8438 14.9755 15.7169 15.1026 15.3375 15.1503C15.2918 15.1562 15.2449 15.1587 15.1985 15.1587C14.8071 15.1587 14.3896 14.9688 14.1745 14.8547C14.2726 14.6477 14.3234 14.4201 14.3234 14.1915C14.3238 13.3304 13.6244 12.6298 12.7635 12.6291C12.745 12.6291 12.7252 12.6298 12.7072 12.6304C12.7353 12.2373 12.6796 11.4927 11.9155 11.1651C11.6955 11.0699 11.4762 11.0216 11.263 11.0216C11.0959 11.0216 10.9355 11.0501 10.7846 11.1079C10.6262 10.8002 10.3634 10.5761 10.0203 10.4593C9.831 10.3938 9.64249 10.3607 9.46014 10.3607C9.14212 10.3607 8.84918 10.4544 8.58811 10.64C8.33751 10.3286 7.95947 10.1444 7.56148 10.1444C7.21303 10.1444 6.87774 10.2838 6.62941 10.5298C6.30379 10.2811 5.01197 9.46066 1.55424 8.67538C1.3867 8.63693 1.00228 8.52716 0.767107 8.45829C0.728254 8.64536 0.69824 8.83449 0.678711 9.02567C0.678711 9.02567 1.3164 9.17821 1.44159 9.20658C4.97394 9.99083 6.14097 10.8068 6.33812 10.9609C6.27131 11.1215 6.23656 11.2946 6.23636 11.4689C6.23574 12.1987 6.82943 12.793 7.55963 12.7936C7.64124 12.7936 7.72265 12.7864 7.80241 12.7718C7.91239 13.3086 8.26371 13.7158 8.80087 13.9247C8.95772 13.9849 9.11643 14.0159 9.27225 14.0159C9.37319 14.0161 9.47453 14.0034 9.57383 13.9781C9.67291 14.2299 9.89596 14.5438 10.3949 14.7465C10.57 14.8171 10.7448 14.8536 10.9148 14.8536C11.0537 14.8536 11.1894 14.8292 11.3189 14.7817C11.558 15.3639 12.127 15.7495 12.7614 15.7495C13.1818 15.7501 13.5856 15.5789 13.8795 15.2759C14.1318 15.4159 14.6636 15.6694 15.201 15.67C15.2706 15.67 15.3358 15.6652 15.4012 15.6572C15.9346 15.5898 16.1834 15.3811 16.2971 15.2187C16.3178 15.1904 16.3363 15.1604 16.3524 15.1289C16.4784 15.1655 16.6169 15.1949 16.7758 15.1951C17.0671 15.1951 17.3469 15.0958 17.6294 14.89C17.9073 14.6898 18.1049 14.4022 18.1332 14.1576C18.1339 14.1541 18.1341 14.1506 18.1347 14.1469C18.2284 14.1662 18.3244 14.1761 18.4204 14.1761C18.7206 14.1761 19.0158 14.0825 19.2978 13.8977C19.842 13.5411 19.9361 13.075 19.9275 12.7702C20.0229 12.7901 20.1201 12.8002 20.2165 12.8002C20.4984 12.8002 20.775 12.7153 21.0384 12.5473C21.3757 12.3319 21.5788 12.0017 21.6097 11.6177C21.6306 11.3567 21.5659 11.0933 21.4282 10.867C22.3399 10.4743 24.4231 9.71434 26.8766 9.16135C26.862 8.97099 26.8345 8.7831 26.8004 8.59603C23.8311 9.25468 21.616 10.2133 21.0614 10.4602ZM12.7614 15.258C12.1848 15.2574 11.7163 14.8094 11.6949 14.2386C11.6935 14.1899 11.6885 14.0597 11.5784 14.0597C11.5331 14.0597 11.4939 14.0869 11.4484 14.1278C11.322 14.2452 11.1604 14.3648 10.9244 14.3648C10.8175 14.3648 10.7016 14.3397 10.5793 14.2898C9.97037 14.0433 9.96194 13.6249 9.98682 13.4568C9.9934 13.412 9.99566 13.3653 9.96482 13.3291L9.92741 13.2954H9.88938C9.85834 13.2954 9.82647 13.3082 9.78351 13.3386C9.60733 13.4623 9.43835 13.5222 9.2667 13.5222C9.17214 13.5222 9.07511 13.5032 8.97828 13.466C8.17676 13.154 8.23987 12.3977 8.27913 12.1699C8.28489 12.1236 8.27358 12.0881 8.24418 12.0642L8.18765 12.0174L8.13461 12.0679C7.97838 12.2184 7.77424 12.3011 7.55942 12.3011C7.10038 12.3004 6.72665 11.9277 6.72706 11.4683C6.72727 11.0092 7.1012 10.6363 7.56045 10.6369C7.97529 10.6369 8.32847 10.949 8.3813 11.3632L8.41008 11.5867L8.53301 11.3976C8.54658 11.3756 8.8829 10.867 9.50146 10.8676C9.61884 10.8676 9.74034 10.8865 9.86286 10.9241C10.3556 11.0746 10.4391 11.5215 10.452 11.7078C10.4607 11.8163 10.538 11.8217 10.553 11.8217C10.5955 11.8217 10.6268 11.7945 10.6494 11.7715C10.7423 11.6743 10.945 11.5127 11.2618 11.5127C11.4069 11.5133 11.5613 11.5476 11.7206 11.6163C12.5043 11.9524 12.1488 12.948 12.1445 12.9581C12.0773 13.1231 12.0746 13.1959 12.1379 13.2381L12.1686 13.2529H12.1914C12.2269 13.2529 12.2709 13.2374 12.3431 13.2128C12.45 13.176 12.6107 13.1207 12.7612 13.1209H12.7616C13.3512 13.1272 13.831 13.6073 13.8306 14.1903C13.8306 14.7792 13.3508 15.258 12.7614 15.258Z" fill="#2B3375"/>
</svg>
